<?xml version="1.0" encoding="UTF-8" standalone="no"?><!DOCTYPE svg PUBLIC "-//W3C//DTD SVG 1.1//EN" "http://www.w3.org/Graphics/SVG/1.1/DTD/svg11.dtd"><!-- Generated by graphviz version 2.39.20160930.0541 (20160930.0541) --><!-- Title: FlowChart Pages: 1 --><svg width="586pt" height="598pt" viewBox="0.00 0.00 585.7 598" xmlns="http://www.w3.org/2000/svg" xmlns:xlink="http://www.w3.org/1999/xlink"><defs><linearGradient id="g-terminatorgu0qtgk6eptmwmavb6e0zfr" x1="0%" x2="100%" y1="0%" y2="0%" spreadMethod="pad"><stop offset="0%" stop-color="#ff8787" stop-opacity="1"/><stop offset="100%" stop-color="#ffb9b9" stop-opacity="1"/></linearGradient><linearGradient id="g-decisiongu0qtgk6eptmwmavb6e0zfr" x1="0%" x2="100%" y1="0%" y2="0%" spreadMethod="pad"><stop offset="0%" stop-color="#ffd287" stop-opacity="1"/><stop offset="100%" stop-color="#ffffb9" stop-opacity="1"/></linearGradient><linearGradient id="g-processgu0qtgk6eptmwmavb6e0zfr" x1="0%" x2="100%" y1="0%" y2="0%" spreadMethod="pad"><stop offset="0%" stop-color="#99ff99" stop-opacity="1"/><stop offset="100%" stop-color="#cbffcb" stop-opacity="1"/></linearGradient><linearGradient id="g-defaultgu0qtgk6eptmwmavb6e0zfr" x1="0%" x2="100%" y1="0%" y2="0%" spreadMethod="pad"><stop offset="0%" stop-color="#99ff99" stop-opacity="1"/><stop offset="100%" stop-color="#cbffcb" stop-opacity="1"/></linearGradient><linearGradient id="g-modulegu0qtgk6eptmwmavb6e0zfr" x1="0%" x2="100%" y1="0%" y2="0%" spreadMethod="pad"><stop offset="0%" stop-color="#77c1e4" stop-opacity="1"/><stop offset="100%" stop-color="#a9f3ff" stop-opacity="1"/></linearGradient><linearGradient id="g-dataiogu0qtgk6eptmwmavb6e0zfr" x1="0%" x2="100%" y1="0%" y2="0%" spreadMethod="pad"><stop offset="0%" stop-color="#bebebe" stop-opacity="1"/><stop offset="100%" stop-color="#f0f0f0" stop-opacity="1"/></linearGradient><linearGradient id="g-preparationgu0qtgk6eptmwmavb6e0zfr" x1="0%" x2="100%" y1="0%" y2="0%" spreadMethod="pad"><stop offset="0%" stop-color="#bebebe" stop-opacity="1"/><stop offset="100%" stop-color="#f0f0f0" stop-opacity="1"/></linearGradient><linearGradient id="g-commentgu0qtgk6eptmwmavb6e0zfr" x1="0%" x2="100%" y1="0%" y2="0%" spreadMethod="pad"><stop offset="0%" stop-color="#f5f588" stop-opacity="1"/><stop offset="100%" stop-color="#ffffba" stop-opacity="1"/></linearGradient><linearGradient id="g-manualgu0qtgk6eptmwmavb6e0zfr" x1="0%" x2="100%" y1="0%" y2="0%" spreadMethod="pad"><stop offset="0%" stop-color="#9e78ff" stop-opacity="1"/><stop offset="100%" stop-color="#d0aaff" stop-opacity="1"/></linearGradient><filter id="dropshadowgu0qtgk6eptmwmavb6e0zfr" height="150%" width="150%"><feGaussianBlur in="SourceAlpha" stdDeviation="3"/><feOffset dx="2" dy="2" result="offsetblur"/><feComponentTransfer/><feMerge><feMergeNode/><feMergeNode in="SourceGraphic"/></feMerge></filter></defs><g id="flowgu0qtgk6eptmwmavb6e0zfr" class="graph" transform="scale(1 1) rotate(0) translate(4 589)"><title>FlowChart</title><!-- terminator_block_1 --><g id="node1" class="node"><title>terminator_block_1</title><ellipse fill="url(#g-terminatorgu0qtgk6eptmwmavb6e0zfr)" stroke="#000000" cx="451.704" cy="-567" rx="67.2153" ry="18"/><text text-anchor="start" x="402.704" y="-564.5" font-family="Open Sans, Noto Sans SC, Noto Sans TC, Noto Sans JP, Noto Sans KR" font-size="10.00" fill="#000000">PHP Form Treatment</text></g><!-- ifs_block_2 --><g id="node2" class="node"><title>ifs_block_2</title><polygon fill="url(#g-decisiongu0qtgk6eptmwmavb6e0zfr)" stroke="#000000" points="451.704,-524 411.784,-506 451.704,-488 491.623,-506 451.704,-524"/><text text-anchor="start" x="435.704" y="-503.5" font-family="Open Sans, Noto Sans SC, Noto Sans TC, Noto Sans JP, Noto Sans KR" font-size="10.00" fill="#000000">submit</text></g><!-- terminator_block_1&#45;&gt;ifs_block_2 --><g id="edge1" class="edge"><title>terminator_block_1->ifs_block_2</title><path fill="none" stroke="#000000" d="M451.704,-548.698C451.704,-544.235 451.704,-539.354 451.704,-534.538"/><polygon fill="#000000" stroke="#000000" points="455.204,-534.289 451.704,-524.289 448.204,-534.289 455.204,-534.289"/></g><!-- process_block_3 --><g id="node3" class="node"><title>process_block_3</title><polygon fill="url(#g-processgu0qtgk6eptmwmavb6e0zfr)" stroke="#000000" points="485.204,-463 418.204,-463 418.204,-427 485.204,-427 485.204,-463"/><text text-anchor="start" x="425.204" y="-442.5" font-family="Open Sans, Noto Sans SC, Noto Sans TC, Noto Sans JP, Noto Sans KR" font-size="10.00" fill="#000000">collect data</text></g><!-- ifs_block_2&#45;&gt;process_block_3 --><g id="edge2" class="edge"><title>ifs_block_2->process_block_3</title><path fill="none" stroke="#000000" d="M451.704,-487.698C451.704,-483.235 451.704,-478.354 451.704,-473.538"/><polygon fill="#000000" stroke="#000000" points="455.204,-473.289 451.704,-463.289 448.204,-473.289 455.204,-473.289"/><text text-anchor="start" x="423.704" y="-479.799" font-family="Open Sans, Noto Sans SC, Noto Sans TC, Noto Sans JP, Noto Sans KR" font-weight="bold" font-size="10.00" fill="#000000"> True </text></g><!-- process_block_4 --><g id="node4" class="node"><title>process_block_4</title><polygon fill="url(#g-processgu0qtgk6eptmwmavb6e0zfr)" stroke="#000000" points="496.704,-402 406.704,-402 406.704,-366 496.704,-366 496.704,-402"/><text text-anchor="start" x="413.704" y="-381.5" font-family="Open Sans, Noto Sans SC, Noto Sans TC, Noto Sans JP, Noto Sans KR" font-size="10.00" fill="#000000">data sanitization</text></g><!-- process_block_3&#45;&gt;process_block_4 --><g id="edge3" class="edge"><title>process_block_3->process_block_4</title><path fill="none" stroke="#000000" d="M451.704,-426.698C451.704,-422.235 451.704,-417.354 451.704,-412.538"/><polygon fill="#000000" stroke="#000000" points="455.204,-412.289 451.704,-402.289 448.204,-412.289 455.204,-412.289"/></g><!-- ifs_block_5 --><g id="node5" class="node"><title>ifs_block_5</title><polygon fill="url(#g-decisiongu0qtgk6eptmwmavb6e0zfr)" stroke="#000000" points="451.704,-341 394.319,-323 451.704,-305 509.088,-323 451.704,-341"/><text text-anchor="start" x="425.204" y="-320.5" font-family="Open Sans, Noto Sans SC, Noto Sans TC, Noto Sans JP, Noto Sans KR" font-size="10.00" fill="#000000">sanitization</text></g><!-- process_block_4&#45;&gt;ifs_block_5 --><g id="edge4" class="edge"><title>process_block_4->ifs_block_5</title><path fill="none" stroke="#000000" d="M451.704,-365.698C451.704,-361.235 451.704,-356.354 451.704,-351.538"/><polygon fill="#000000" stroke="#000000" points="455.204,-351.289 451.704,-341.289 448.204,-351.289 455.204,-351.289"/></g><!-- process_block_6 --><g id="node6" class="node"><title>process_block_6</title><polygon fill="url(#g-processgu0qtgk6eptmwmavb6e0zfr)" stroke="#000000" points="371.704,-280 289.704,-280 289.704,-244 371.704,-244 371.704,-280"/><text text-anchor="start" x="296.704" y="-259.5" font-family="Open Sans, Noto Sans SC, Noto Sans TC, Noto Sans JP, Noto Sans KR" font-size="10.00" fill="#000000">data validation</text></g><!-- ifs_block_5&#45;&gt;process_block_6 --><g id="edge5" class="edge"><title>ifs_block_5->process_block_6</title><path fill="none" stroke="#000000" d="M429.51,-311.812C414.452,-304.22 394.015,-293.918 375.636,-284.652"/><polygon fill="#000000" stroke="#000000" points="377.037,-281.439 366.532,-280.062 373.886,-287.689 377.037,-281.439"/><text text-anchor="start" x="370.114" y="-288.984" font-family="Open Sans, Noto Sans SC, Noto Sans TC, Noto Sans JP, Noto Sans KR" font-weight="bold" font-size="10.00" fill="#000000"> True </text></g><!-- terminator_block_11 --><g id="node11" class="node"><title>terminator_block_11</title><ellipse fill="url(#g-terminatorgu0qtgk6eptmwmavb6e0zfr)" stroke="#000000" cx="318.704" cy="-18" rx="27" ry="18"/><text text-anchor="start" x="307.204" y="-15.5" font-family="Open Sans, Noto Sans SC, Noto Sans TC, Noto Sans JP, Noto Sans KR" font-size="10.00" fill="#000000">error</text></g><!-- ifs_block_5&#45;&gt;terminator_block_11 --><g id="edge12" class="edge"><title>ifs_block_5->terminator_block_11</title><path fill="none" stroke="#000000" d="M475.321,-312.359C510.534,-294.689 572.704,-255.74 572.704,-201 572.704,-201 572.704,-201 572.704,-140 572.704,-91.9742 423.291,-45.8516 353.655,-26.9636"/><polygon fill="#000000" stroke="#000000" points="354.551,-23.5805 343.987,-24.3774 352.743,-30.3427 354.551,-23.5805"/><text text-anchor="start" x="420.144" y="-61.1168" font-family="Open Sans, Noto Sans SC, Noto Sans TC, Noto Sans JP, Noto Sans KR" font-weight="bold" font-size="10.00" fill="#000000"> False </text></g><!-- ifs_block_7 --><g id="node7" class="node"><title>ifs_block_7</title><polygon fill="url(#g-decisiongu0qtgk6eptmwmavb6e0zfr)" stroke="#000000" points="318.704,-219 268.138,-201 318.704,-183 369.269,-201 318.704,-219"/><text text-anchor="start" x="296.204" y="-198.5" font-family="Open Sans, Noto Sans SC, Noto Sans TC, Noto Sans JP, Noto Sans KR" font-size="10.00" fill="#000000">validation</text></g><!-- process_block_6&#45;&gt;ifs_block_7 --><g id="edge6" class="edge"><title>process_block_6->ifs_block_7</title><path fill="none" stroke="#000000" d="M327.103,-243.698C326.127,-238.737 325.05,-233.26 324.001,-227.93"/><polygon fill="#000000" stroke="#000000" points="327.42,-227.174 322.055,-218.038 320.551,-228.525 327.42,-227.174"/></g><!-- process_block_8 --><g id="node8" class="node"><title>process_block_8</title><polygon fill="url(#g-processgu0qtgk6eptmwmavb6e0zfr)" stroke="#000000" points="123.704,-158 41.7035,-158 41.7035,-122 123.704,-122 123.704,-158"/><text text-anchor="start" x="48.7035" y="-137.5" font-family="Open Sans, Noto Sans SC, Noto Sans TC, Noto Sans JP, Noto Sans KR" font-size="10.00" fill="#000000">data execution</text></g><!-- ifs_block_7&#45;&gt;process_block_8 --><g id="edge7" class="edge"><title>ifs_block_7->process_block_8</title><path fill="none" stroke="#000000" d="M289.291,-193.398C250.416,-183.349 181.31,-165.487 133.805,-153.209"/><polygon fill="#000000" stroke="#000000" points="134.573,-149.792 124.015,-150.678 132.821,-156.569 134.573,-149.792"/><text text-anchor="start" x="178.534" y="-176.007" font-family="Open Sans, Noto Sans SC, Noto Sans TC, Noto Sans JP, Noto Sans KR" font-weight="bold" font-size="10.00" fill="#000000"> True </text></g><!-- ifs_block_7&#45;&gt;terminator_block_11 --><g id="edge11" class="edge"><title>ifs_block_7->terminator_block_11</title><path fill="none" stroke="#000000" d="M318.704,-182.784C318.704,-150.858 318.704,-84.5809 318.704,-46.5263"/><polygon fill="#000000" stroke="#000000" points="322.204,-46.1421 318.704,-36.1421 315.204,-46.1421 322.204,-46.1421"/><text text-anchor="start" x="288.704" y="-113.224" font-family="Open Sans, Noto Sans SC, Noto Sans TC, Noto Sans JP, Noto Sans KR" font-weight="bold" font-size="10.00" fill="#000000"> False </text></g><!-- ifs_block_9 --><g id="node9" class="node"><title>ifs_block_9</title><polygon fill="url(#g-decisiongu0qtgk6eptmwmavb6e0zfr)" stroke="#000000" points="77.7035,-97 27.1382,-79 77.7035,-61 128.269,-79 77.7035,-97"/><text text-anchor="start" x="55.2035" y="-76.5" font-family="Open Sans, Noto Sans SC, Noto Sans TC, Noto Sans JP, Noto Sans KR" font-size="10.00" fill="#000000">execution</text></g><!-- process_block_8&#45;&gt;ifs_block_9 --><g id="edge8" class="edge"><title>process_block_8->ifs_block_9</title><path fill="none" stroke="#000000" d="M81.2033,-121.698C80.8208,-117.031 80.4008,-111.907 79.9887,-106.879"/><polygon fill="#000000" stroke="#000000" points="83.4735,-106.55 79.1682,-96.8693 76.4969,-107.122 83.4735,-106.55"/></g><!-- terminator_block_10 --><g id="node10" class="node"><title>terminator_block_10</title><ellipse fill="url(#g-terminatorgu0qtgk6eptmwmavb6e0zfr)" stroke="#000000" cx="77.7035" cy="-18" rx="77.9076" ry="18"/><text text-anchor="start" x="19.7035" y="-15.5" font-family="Open Sans, Noto Sans SC, Noto Sans TC, Noto Sans JP, Noto Sans KR" font-size="10.00" fill="#000000">send information by mail</text></g><!-- ifs_block_9&#45;&gt;terminator_block_10 --><g id="edge9" class="edge"><title>ifs_block_9->terminator_block_10</title><path fill="none" stroke="#000000" d="M77.7035,-60.698C77.7035,-56.2345 77.7035,-51.3538 77.7035,-46.5385"/><polygon fill="#000000" stroke="#000000" points="81.2036,-46.2891 77.7035,-36.2891 74.2036,-46.2891 81.2036,-46.2891"/><text text-anchor="start" x="49.7035" y="-52.7986" font-family="Open Sans, Noto Sans SC, Noto Sans TC, Noto Sans JP, Noto Sans KR" font-weight="bold" font-size="10.00" fill="#000000"> True </text></g><!-- ifs_block_9&#45;&gt;terminator_block_11 --><g id="edge10" class="edge"><title>ifs_block_9->terminator_block_11</title><path fill="none" stroke="#000000" d="M107.739,-71.3976C152.41,-60.0909 236.169,-38.8906 283.603,-26.8844"/><polygon fill="#000000" stroke="#000000" points="284.593,-30.2443 293.428,-24.3975 282.875,-23.4583 284.593,-30.2443"/><text text-anchor="start" x="170.341" y="-51.959" font-family="Open Sans, Noto Sans SC, Noto Sans TC, Noto Sans JP, Noto Sans KR" font-weight="bold" font-size="10.00" fill="#000000"> False </text></g></g></svg>